<svg xmlns="http://www.w3.org/2000/svg" width="21" height="20" fill="none">
  <g fill="#E8F7FF" clip-path="url(#a)">
    <path d="M5.10938 1.04297C2.49219 1.32422.507812 3.70312.5 6.56641c0 .91406.234375 2.21875.53516 2.97265l.05859.14844h3.70313l.03906-.08984c.01953-.04688.29297-.95704.60547-2.01954.3164-1.0625.60156-1.98437.63671-2.04687.20704-.35547.71485-.38672.95704-.05469.04296.0586.30078.92578.62109 2.08594.29687 1.08984.55078 1.99609.5625 2.01562.01172.01563.48437.03126 1.05469.03126 1.11716 0 1.17576.00781 1.33596.21484.0429.05078.2304.55468.4179 1.11328.1915.5586.3555 1.0156.3672 1.0156.0117 0 .4375-1.164.9414-2.58591.5039-1.42188.9532-2.63672.9961-2.70313.2071-.3125.6407-.33984.9063-.05468.0547.05859.3008.67968.6289 1.59374l.543 1.50391 2.2109.01172 2.2109.00781.0821-.22265c.1328-.35157.3476-1.16016.4297-1.6211.3124-1.73437.1328-3.1914-.5352-4.30859-.7734-1.28906-2.1055-2.1875-3.6563-2.46875-.4843-.08594-1.3398-.08203-1.8046.00391-1.2852.24609-2.25.83593-3.1016 1.89453-.3359.42187-.4649.51171-.7266.51953-.289.0039-.4531-.09766-.71872-.4375-.89062-1.14844-2.12109-1.85938-3.51953-2.03125-.3125-.03516-.875-.04297-1.17187-.01172Z"/>
    <path d="M6.17188 9.24996c-.19922.67968-.39454 1.28124-.42969 1.33204-.03907.0547-.1211.1328-.17969.1758-.10547.0781-.15625.082-2.01953.0937-1.05078.0039-1.91016.0195-1.91016.0313 0 .0078.08203.164.1836.3398.96875 1.7149 2.55468 3.4883 4.54297 5.0899.98828.7968 2.30468 1.7031 3.38671 2.3398.65231.3789.75001.3984 1.15621.207.3868-.1836 1.1641-.6562 1.9219-1.164 2.4805-1.668 4.4375-3.5625 5.7578-5.5625.2618-.3946.7071-1.1602.7071-1.211 0-.0117-.9805-.0234-2.1758-.0234-2.0313 0-2.1914-.0078-2.336-.0742-.0859-.0391-.1875-.1055-.2226-.1485-.0391-.0429-.2109-.4687-.3828-.94918-.1758-.48047-.3281-.89453-.3438-.92188-.0156-.02734-.4453 1.13282-.9609 2.57426-.5117 1.4453-.957 2.6679-.9883 2.7226-.082.1445-.2305.2383-.4023.2617-.2071.0274-.3282-.0078-.4805-.1445-.1211-.1055-.1797-.2617-.6953-1.7734l-.56252-1.6602-1.08203-.0117c-1.01953-.0117-1.08594-.0156-1.1875-.0938-.05859-.0429-.14063-.1211-.17969-.1757-.03906-.0508-.21484-.62504-.39453-1.27348-.17578-.64843-.33203-1.1875-.33984-1.19921-.01172-.00782-.1836.53906-.38281 1.21875Z"/>
  </g>
  <defs>
    <clipPath id="a">
      <path fill="#fff" d="M.5 0h20v20H.5z"/>
    </clipPath>
  </defs>
</svg>