<svg width="106" height="38" viewBox="0 0 106 38" fill="none" xmlns="http://www.w3.org/2000/svg">
<path d="M21.548 8.48908C21.8257 8.22715 22.0626 7.99546 22.3055 7.7703C23.4234 6.73415 24.8382 6.87526 25.4464 8.27103C26.0129 9.57098 26.3914 10.9856 26.6328 12.3876C27.127 15.2577 27.0945 18.1283 26.1231 20.9281C25.0049 24.1509 22.8756 26.5929 20.1779 28.5793C18.413 29.879 16.6135 31.1321 14.8127 32.3818C14.6544 32.4916 14.3001 32.5208 14.1562 32.4189C12.0554 30.9322 9.91994 29.4866 7.90052 27.8944C2.98767 24.021 1.28339 18.8781 2.20821 12.7935C2.41292 11.4466 2.73546 10.1057 3.14092 8.80478C3.50579 7.63413 4.3532 7.03064 5.31896 7.14881C5.75001 7.20156 6.19042 7.46238 6.55371 7.72831C7.46595 8.39608 8.29688 9.18037 9.23553 9.80506C10.1279 10.3989 10.684 10.2841 11.4264 9.5211C11.9032 9.03103 12.3234 8.48613 12.7753 7.97136C13.7992 6.80498 15.0876 6.7982 16.1182 7.95849C16.5564 8.45181 16.9522 8.98484 17.4116 9.45672C18.2322 10.2996 18.7881 10.3813 19.7923 9.7698C20.3947 9.40303 20.9393 8.94136 21.548 8.48908ZM4.34144 20.1942C4.96289 22.0365 5.86328 23.7597 7.33112 25.0207C9.59705 26.9673 12.0056 28.7478 14.3275 30.5781C16.2444 29.2219 18.0373 28.034 19.741 26.7294C22.3919 24.6995 24.2649 22.1236 24.942 18.7821C25.5587 15.7384 25.1617 12.7627 24.3277 9.8214C24.2257 9.46162 23.9831 9.14171 23.793 8.77918C23.1761 9.32063 22.6813 9.79841 22.1407 10.2172C21.6009 10.6354 21.041 11.0413 20.4446 11.3704C18.9652 12.187 17.8169 12.0741 16.5451 10.9545C15.9841 10.4606 15.5239 9.85098 15.0271 9.28581C14.5101 8.69765 14.3843 8.69807 13.8869 9.2973C13.4945 9.76998 13.1192 10.2616 12.6866 10.6953C11.3302 12.0553 10.0019 12.2359 8.33625 11.2785C7.78536 10.9618 7.26743 10.5792 6.76765 10.1847C6.22055 9.75278 5.71188 9.27221 5.01963 8.667C3.61373 12.5092 3.21072 16.2432 4.34144 20.1942Z" fill="#02273A"/>
<path d="M6.59515 21.2761C5.33071 18.8511 5.16086 16.3118 5.46175 13.7081C5.54004 13.0306 5.6786 12.3601 5.81029 11.5599C8.8158 14.0344 11.7051 14.4705 14.4111 11.2894C17.2036 14.2105 19.5807 14.2619 23.0547 11.7132C24.4492 17.178 23.2402 22.0545 18.6751 25.4664C17.3141 26.4835 15.9169 27.4521 14.4926 28.4743C11.7563 26.5654 8.8279 24.9297 7.0072 21.998C6.87042 21.7778 6.75069 21.547 6.59515 21.2761ZM16.023 15.093C15.5332 14.8276 15.0434 14.5622 14.5306 14.2843C14.5306 18.1221 14.5306 21.933 14.5306 25.7662C19.1988 23.0463 21.8539 19.8605 21.3609 15.0521C19.6224 15.744 17.8774 15.8758 16.023 15.093Z" fill="#02273A"/>
<path d="M46.8105 7.07955C46.7158 6.77273 46.5851 6.49811 46.4184 6.25568C46.2556 6.00947 46.0586 5.79924 45.8275 5.625C45.6002 5.45076 45.3389 5.32008 45.0434 5.23295C44.748 5.14205 44.426 5.09659 44.0775 5.09659C43.4525 5.09659 42.8957 5.25379 42.4071 5.56818C41.9184 5.88258 41.534 6.3447 41.2537 6.95455C40.9771 7.56061 40.8389 8.29924 40.8389 9.17045C40.8389 10.0492 40.9771 10.7936 41.2537 11.4034C41.5302 12.0133 41.9146 12.4773 42.4071 12.7955C42.8995 13.1098 43.4715 13.267 44.123 13.267C44.7139 13.267 45.2252 13.1534 45.6571 12.9261C46.0927 12.6989 46.4279 12.3769 46.6627 11.9602C46.8976 11.5398 47.015 11.0473 47.015 10.483L47.4923 10.5568H44.3332V8.90909H49.0548V10.3068C49.0548 11.303 48.8427 12.1648 48.4184 12.892C47.9942 13.6193 47.4109 14.1799 46.6684 14.5739C45.926 14.964 45.0737 15.1591 44.1116 15.1591C43.0396 15.1591 42.0984 14.9186 41.2877 14.4375C40.4809 13.9527 39.8502 13.2652 39.3957 12.375C38.9449 11.4811 38.7196 10.4205 38.7196 9.19318C38.7196 8.25379 38.8521 7.41477 39.1173 6.67614C39.3862 5.9375 39.7612 5.31061 40.2423 4.79545C40.7234 4.27651 41.2877 3.88258 41.9355 3.61364C42.5832 3.34091 43.2877 3.20455 44.0491 3.20455C44.6931 3.20455 45.2934 3.29924 45.8502 3.48864C46.4071 3.67424 46.9014 3.93939 47.3332 4.28409C47.7688 4.62879 48.1268 5.03788 48.4071 5.51136C48.6874 5.98485 48.8711 6.50758 48.9582 7.07955H46.8105ZM56.2447 11.3295V6.27273H58.3016V15H56.3072V13.4489H56.2163C56.0194 13.9375 55.6955 14.3371 55.2447 14.6477C54.7978 14.9583 54.2466 15.1136 53.5913 15.1136C53.0194 15.1136 52.5137 14.9867 52.0743 14.733C51.6387 14.4754 51.2978 14.1023 51.0516 13.6136C50.8053 13.1212 50.6822 12.5265 50.6822 11.8295V6.27273H52.7391V11.5114C52.7391 12.0644 52.8906 12.5038 53.1936 12.8295C53.4966 13.1553 53.8944 13.3182 54.3868 13.3182C54.6898 13.3182 54.9834 13.2443 55.2675 13.0966C55.5516 12.9489 55.7845 12.7292 55.9663 12.4375C56.1519 12.142 56.2447 11.7727 56.2447 11.3295ZM62.608 15.1761C62.0549 15.1761 61.5568 15.0777 61.1137 14.8807C60.6743 14.6799 60.3258 14.3845 60.0682 13.9943C59.8144 13.6042 59.6875 13.1231 59.6875 12.5511C59.6875 12.0587 59.7784 11.6515 59.9602 11.3295C60.1421 11.0076 60.3902 10.75 60.7046 10.5568C61.019 10.3636 61.3731 10.2178 61.7671 10.1193C62.1648 10.017 62.5758 9.94318 63 9.89773C63.5114 9.8447 63.9262 9.79735 64.2443 9.75568C64.5625 9.71023 64.7936 9.64205 64.9375 9.55114C65.0852 9.45644 65.1591 9.31061 65.1591 9.11364V9.07955C65.1591 8.65152 65.0322 8.32008 64.7784 8.08523C64.5246 7.85038 64.1591 7.73295 63.6818 7.73295C63.1781 7.73295 62.7784 7.8428 62.483 8.0625C62.1913 8.2822 61.9943 8.54167 61.8921 8.84091L59.9716 8.56818C60.1231 8.03788 60.3731 7.5947 60.7216 7.23864C61.0701 6.87879 61.4962 6.60985 62 6.43182C62.5038 6.25 63.0606 6.15909 63.6705 6.15909C64.0909 6.15909 64.5095 6.20833 64.9262 6.30682C65.3428 6.4053 65.7235 6.56818 66.0682 6.79545C66.4129 7.01894 66.6894 7.32386 66.8977 7.71023C67.1099 8.09659 67.2159 8.57955 67.2159 9.15909V15H65.2387V13.8011H65.1705C65.0455 14.0436 64.8693 14.2708 64.6421 14.483C64.4186 14.6913 64.1364 14.8598 63.7955 14.9886C63.4584 15.1136 63.0625 15.1761 62.608 15.1761ZM63.1421 13.6648C63.5549 13.6648 63.9129 13.5833 64.2159 13.4205C64.519 13.2538 64.7519 13.0341 64.9148 12.7614C65.0815 12.4886 65.1648 12.1913 65.1648 11.8693V10.8409C65.1004 10.8939 64.9906 10.9432 64.8352 10.9886C64.6837 11.0341 64.5133 11.0739 64.3239 11.108C64.1345 11.142 63.947 11.1723 63.7614 11.1989C63.5758 11.2254 63.4148 11.2481 63.2784 11.267C62.9716 11.3087 62.697 11.3769 62.4546 11.4716C62.2121 11.5663 62.0209 11.6989 61.8807 11.8693C61.7406 12.036 61.6705 12.2519 61.6705 12.517C61.6705 12.8958 61.8087 13.1818 62.0852 13.375C62.3618 13.5682 62.714 13.6648 63.1421 13.6648ZM68.9641 15V6.27273H70.9584V7.72727H71.0493C71.2084 7.22348 71.4812 6.83523 71.8675 6.5625C72.2577 6.28598 72.7027 6.14773 73.2027 6.14773C73.3164 6.14773 73.4433 6.15341 73.5834 6.16477C73.7274 6.17235 73.8467 6.18561 73.9414 6.20455V8.09659C73.8543 8.06629 73.716 8.03977 73.5266 8.01705C73.341 7.99053 73.1611 7.97727 72.9868 7.97727C72.6118 7.97727 72.2747 8.05871 71.9755 8.22159C71.68 8.38068 71.4471 8.60227 71.2766 8.88636C71.1062 9.17045 71.0209 9.49811 71.0209 9.86932V15H68.9641ZM77.8671 15.1534C77.1815 15.1534 76.5679 14.9773 76.0262 14.625C75.4845 14.2727 75.0565 13.7614 74.7421 13.0909C74.4277 12.4205 74.2705 11.6061 74.2705 10.6477C74.2705 9.67803 74.4296 8.85985 74.7478 8.19318C75.0698 7.52273 75.5035 7.01705 76.0489 6.67614C76.5944 6.33144 77.2024 6.15909 77.8728 6.15909C78.3842 6.15909 78.8046 6.24621 79.1342 6.42045C79.4637 6.59091 79.7251 6.79735 79.9183 7.03977C80.1114 7.27841 80.2611 7.50379 80.3671 7.71591H80.4524V3.36364H82.5149V15H80.4921V13.625H80.3671C80.2611 13.8371 80.1077 14.0625 79.9069 14.3011C79.7061 14.536 79.441 14.7367 79.1114 14.9034C78.7819 15.0701 78.3671 15.1534 77.8671 15.1534ZM78.441 13.4659C78.8766 13.4659 79.2478 13.3485 79.5546 13.1136C79.8614 12.875 80.0944 12.5436 80.2535 12.1193C80.4126 11.6951 80.4921 11.2008 80.4921 10.6364C80.4921 10.072 80.4126 9.58144 80.2535 9.16477C80.0982 8.74811 79.8671 8.42424 79.5603 8.19318C79.2573 7.96212 78.8842 7.84659 78.441 7.84659C77.9827 7.84659 77.6001 7.96591 77.2933 8.20455C76.9864 8.44318 76.7554 8.77273 76.6001 9.19318C76.4448 9.61364 76.3671 10.0947 76.3671 10.6364C76.3671 11.1818 76.4448 11.6686 76.6001 12.0966C76.7592 12.5208 76.9921 12.8561 77.2989 13.1023C77.6095 13.3447 77.9902 13.4659 78.441 13.4659ZM84.3866 15V6.27273H86.4434V15H84.3866ZM85.4207 5.03409C85.0949 5.03409 84.8146 4.92614 84.5798 4.71023C84.3449 4.49053 84.2275 4.22727 84.2275 3.92045C84.2275 3.60985 84.3449 3.34659 84.5798 3.13068C84.8146 2.91098 85.0949 2.80114 85.4207 2.80114C85.7503 2.80114 86.0306 2.91098 86.2616 3.13068C86.4965 3.34659 86.6139 3.60985 86.6139 3.92045C86.6139 4.22727 86.4965 4.49053 86.2616 4.71023C86.0306 4.92614 85.7503 5.03409 85.4207 5.03409ZM90.7499 15.1761C90.1968 15.1761 89.6987 15.0777 89.2555 14.8807C88.8161 14.6799 88.4677 14.3845 88.2101 13.9943C87.9563 13.6042 87.8294 13.1231 87.8294 12.5511C87.8294 12.0587 87.9203 11.6515 88.1021 11.3295C88.2839 11.0076 88.532 10.75 88.8464 10.5568C89.1608 10.3636 89.515 10.2178 89.9089 10.1193C90.3067 10.017 90.7177 9.94318 91.1419 9.89773C91.6533 9.8447 92.068 9.79735 92.3862 9.75568C92.7044 9.71023 92.9355 9.64205 93.0794 9.55114C93.2271 9.45644 93.301 9.31061 93.301 9.11364V9.07955C93.301 8.65152 93.1741 8.32008 92.9203 8.08523C92.6665 7.85038 92.301 7.73295 91.8237 7.73295C91.3199 7.73295 90.9203 7.8428 90.6249 8.0625C90.3332 8.2822 90.1362 8.54167 90.0339 8.84091L88.1135 8.56818C88.265 8.03788 88.515 7.5947 88.8635 7.23864C89.212 6.87879 89.6381 6.60985 90.1419 6.43182C90.6457 6.25 91.2025 6.15909 91.8124 6.15909C92.2328 6.15909 92.6514 6.20833 93.068 6.30682C93.4847 6.4053 93.8654 6.56818 94.2101 6.79545C94.5548 7.01894 94.8313 7.32386 95.0396 7.71023C95.2517 8.09659 95.3578 8.57955 95.3578 9.15909V15H93.3805V13.8011H93.3124C93.1874 14.0436 93.0112 14.2708 92.7839 14.483C92.5605 14.6913 92.2783 14.8598 91.9374 14.9886C91.6002 15.1136 91.2044 15.1761 90.7499 15.1761ZM91.2839 13.6648C91.6968 13.6648 92.0548 13.5833 92.3578 13.4205C92.6608 13.2538 92.8938 13.0341 93.0567 12.7614C93.2233 12.4886 93.3067 12.1913 93.3067 11.8693V10.8409C93.2423 10.8939 93.1324 10.9432 92.9771 10.9886C92.8256 11.0341 92.6552 11.0739 92.4658 11.108C92.2764 11.142 92.0889 11.1723 91.9033 11.1989C91.7177 11.2254 91.5567 11.2481 91.4203 11.267C91.1135 11.3087 90.8389 11.3769 90.5964 11.4716C90.354 11.5663 90.1627 11.6989 90.0226 11.8693C89.8824 12.036 89.8124 12.2519 89.8124 12.517C89.8124 12.8958 89.9506 13.1818 90.2271 13.375C90.5036 13.5682 90.8559 13.6648 91.2839 13.6648ZM99.1628 9.88636V15H97.106V6.27273H99.0719V7.75568H99.1742C99.3749 7.26705 99.695 6.87879 100.134 6.59091C100.578 6.30303 101.125 6.15909 101.776 6.15909C102.379 6.15909 102.903 6.28788 103.35 6.54545C103.801 6.80303 104.15 7.17614 104.396 7.66477C104.646 8.15341 104.769 8.74621 104.765 9.44318V15H102.708V9.76136C102.708 9.17803 102.557 8.72159 102.254 8.39205C101.954 8.0625 101.54 7.89773 101.009 7.89773C100.65 7.89773 100.329 7.97727 100.049 8.13636C99.7727 8.29167 99.5548 8.51705 99.3958 8.8125C99.2405 9.10795 99.1628 9.46591 99.1628 9.88636ZM40.5093 34H38.2593L42.3559 22.3636H44.9582L49.0605 34H46.8105L43.7025 24.75H43.6116L40.5093 34ZM40.5832 29.4375H46.7196V31.1307H40.5832V29.4375ZM50.1822 34V25.2727H52.1766V26.7273H52.2675C52.4266 26.2235 52.6993 25.8352 53.0856 25.5625C53.4758 25.286 53.9209 25.1477 54.4209 25.1477C54.5345 25.1477 54.6614 25.1534 54.8016 25.1648C54.9455 25.1723 55.0648 25.1856 55.1595 25.2045V27.0966C55.0724 27.0663 54.9341 27.0398 54.7447 27.017C54.5591 26.9905 54.3792 26.9773 54.205 26.9773C53.83 26.9773 53.4928 27.0587 53.1936 27.2216C52.8981 27.3807 52.6652 27.6023 52.4947 27.8864C52.3243 28.1705 52.2391 28.4981 52.2391 28.8693V34H50.1822ZM59.7102 34.1705C58.8352 34.1705 58.0796 33.9886 57.4432 33.625C56.8106 33.2576 56.3239 32.7386 55.983 32.0682C55.6421 31.3939 55.4716 30.6004 55.4716 29.6875C55.4716 28.7898 55.6421 28.0019 55.983 27.3239C56.3277 26.642 56.8087 26.1117 57.4262 25.733C58.0436 25.3504 58.769 25.1591 59.6023 25.1591C60.1402 25.1591 60.6477 25.2462 61.125 25.4205C61.6061 25.5909 62.0303 25.8561 62.3977 26.2159C62.769 26.5758 63.0606 27.0341 63.2727 27.5909C63.4849 28.1439 63.5909 28.803 63.5909 29.5682V30.1989H56.4375V28.8125H61.6193C61.6156 28.4186 61.5303 28.0682 61.3637 27.7614C61.197 27.4508 60.964 27.2064 60.6648 27.0284C60.3693 26.8504 60.0246 26.7614 59.6307 26.7614C59.2102 26.7614 58.8409 26.8636 58.5227 27.0682C58.2046 27.2689 57.9565 27.5341 57.7784 27.8636C57.6042 28.1894 57.5152 28.5473 57.5114 28.9375V30.1477C57.5114 30.6553 57.6042 31.0909 57.7898 31.4545C57.9754 31.8144 58.2349 32.0909 58.5682 32.2841C58.9015 32.4735 59.2917 32.5682 59.7387 32.5682C60.0379 32.5682 60.3087 32.5265 60.5512 32.4432C60.7936 32.3561 61.0038 32.2292 61.1818 32.0625C61.3599 31.8958 61.4943 31.6894 61.5852 31.4432L63.5057 31.6591C63.3845 32.1667 63.1534 32.6098 62.8125 32.9886C62.4754 33.3636 62.0436 33.6553 61.5171 33.8636C60.9906 34.0682 60.3883 34.1705 59.7102 34.1705ZM67.5224 34.1761C66.9693 34.1761 66.4712 34.0777 66.028 33.8807C65.5886 33.6799 65.2402 33.3845 64.9826 32.9943C64.7288 32.6042 64.6019 32.1231 64.6019 31.5511C64.6019 31.0587 64.6928 30.6515 64.8746 30.3295C65.0564 30.0076 65.3045 29.75 65.6189 29.5568C65.9333 29.3636 66.2875 29.2178 66.6814 29.1193C67.0792 29.017 67.4902 28.9432 67.9144 28.8977C68.4258 28.8447 68.8405 28.7973 69.1587 28.7557C69.4769 28.7102 69.708 28.642 69.8519 28.5511C69.9996 28.4564 70.0735 28.3106 70.0735 28.1136V28.0795C70.0735 27.6515 69.9466 27.3201 69.6928 27.0852C69.439 26.8504 69.0735 26.733 68.5962 26.733C68.0924 26.733 67.6928 26.8428 67.3974 27.0625C67.1057 27.2822 66.9087 27.5417 66.8064 27.8409L64.886 27.5682C65.0375 27.0379 65.2875 26.5947 65.636 26.2386C65.9845 25.8788 66.4106 25.6098 66.9144 25.4318C67.4182 25.25 67.975 25.1591 68.5849 25.1591C69.0053 25.1591 69.4239 25.2083 69.8405 25.3068C70.2572 25.4053 70.6379 25.5682 70.9826 25.7955C71.3273 26.0189 71.6038 26.3239 71.8121 26.7102C72.0242 27.0966 72.1303 27.5795 72.1303 28.1591V34H70.153V32.8011H70.0849C69.9599 33.0436 69.7837 33.2708 69.5564 33.483C69.333 33.6913 69.0508 33.8598 68.7099 33.9886C68.3727 34.1136 67.9769 34.1761 67.5224 34.1761ZM68.0564 32.6648C68.4693 32.6648 68.8273 32.5833 69.1303 32.4205C69.4333 32.2538 69.6663 32.0341 69.8292 31.7614C69.9958 31.4886 70.0792 31.1913 70.0792 30.8693V29.8409C70.0148 29.8939 69.9049 29.9432 69.7496 29.9886C69.5981 30.0341 69.4277 30.0739 69.2383 30.108C69.0489 30.142 68.8614 30.1723 68.6758 30.1989C68.4902 30.2254 68.3292 30.2481 68.1928 30.267C67.886 30.3087 67.6114 30.3769 67.3689 30.4716C67.1265 30.5663 66.9352 30.6989 66.7951 30.8693C66.6549 31.036 66.5849 31.2519 66.5849 31.517C66.5849 31.8958 66.7231 32.1818 66.9996 32.375C67.2761 32.5682 67.6284 32.6648 68.0564 32.6648Z" fill="#02273A"/>
</svg>
